<?xml version="1.0" encoding="UTF-8"?>
<svg version="1.1" xmlns="http://www.w3.org/2000/svg" width="1289" height="1302">
<path d="M0 0 C425.37 0 850.74 0 1289 0 C1289 429.66 1289 859.32 1289 1302 C863.63 1302 438.26 1302 0 1302 C0 872.34 0 442.68 0 0 Z " fill="#A76AE1" transform="translate(0,0)"/>
<path d="M0 0 C425.37 0 850.74 0 1289 0 C1289 429.66 1289 859.32 1289 1302 C863.63 1302 438.26 1302 0 1302 C0 872.34 0 442.68 0 0 Z M570 41 C568.54645879 41.17929617 567.09284283 41.35798719 565.63916016 41.53613281 C525.38110947 46.52696032 486.09745628 55.82292974 447.625 68.625 C446.85063599 68.88256073 446.07627197 69.14012146 445.27844238 69.40548706 C375.89061822 92.58651373 309.9115142 129.22688331 253.92529297 176.37890625 C252.11299539 177.90485805 250.29392191 179.42227303 248.47265625 180.9375 C241.70285141 186.59106524 235.15589077 192.44472058 228.69506836 198.44848633 C227.41424641 199.62083596 226.12121285 200.77986325 224.82250977 201.93237305 C218.61314602 207.44775998 212.66129615 213.18327046 206.8034668 219.06616211 C205.30695075 220.56806925 203.805117 222.06451062 202.30273438 223.56054688 C197.52529644 228.33468968 192.8583138 233.15826213 188.46459961 238.2902832 C186.41162136 240.68685041 184.2661382 242.99473592 182.125 245.3125 C177.20422698 250.7149752 172.5729951 256.30237581 168 262 C167.07610551 263.13198786 166.1515971 264.26347487 165.2265625 265.39453125 C143.83446513 291.66465348 124.46808747 320.39829363 108 350 C107.11803955 351.58095459 107.11803955 351.58095459 106.21826172 353.19384766 C72.81063396 413.45262826 50.27808554 478.29932624 38.33990479 546.08612061 C38.02907186 547.83630699 37.7072391 549.58453063 37.38427734 551.33251953 C28.07178142 601.98697642 26.76251996 655.82071132 32 707 C32.1305036 708.33200235 32.26069911 709.66403492 32.390625 710.99609375 C34.34599137 730.75950814 37.38911911 750.19389281 41.32568359 769.65673828 C41.88785241 772.44397206 42.42921617 775.23347363 42.95703125 778.02734375 C52.47498529 827.25682993 70.16896824 874.99130951 92 920 C92.45503906 920.94182129 92.91007812 921.88364258 93.37890625 922.85400391 C111.01164276 959.19191575 132.85237494 993.53268007 157.71582031 1025.35253906 C159.02295088 1027.02944345 160.32051572 1028.71343704 161.6171875 1030.3984375 C171.60324372 1043.31653103 182.39143179 1055.48573326 193.52929688 1067.41601562 C194.99302669 1068.99248957 196.44365661 1070.58001397 197.890625 1072.171875 C207.44176348 1082.66002774 217.20825307 1093.17681307 228.05859375 1102.33984375 C230.53444997 1104.45702462 232.91661268 1106.66781829 235.3125 1108.875 C240.71476571 1113.79624205 246.31305671 1118.4139906 252 1123 C253.18326549 1123.97407866 254.36550053 1124.94941 255.546875 1125.92578125 C331.39625417 1188.4459402 422.00289712 1230.8018913 593 1262 C593.9068605 1262.08325027 594.81372101 1262.16650055 595.74806213 1262.25227356 C604.49351709 1263.00044534 613.2089967 1263.19446789 621.98046875 1263.23828125 C622.72667669 1263.24308376 623.47288464 1263.24788628 624.24170494 1263.25283432 C629.89029677 1263.2886613 635.538807 1263.30434311 641.1875 1263.3125 C642.01534248 1263.31409245 642.84318497 1263.31568489 643.69611359 1263.31732559 C669.97514462 1263.36029421 695.9400951 1262.70936261 722 1259 C723.20869247 1258.82884674 723.20869247 1258.82884674 724.44180298 1258.65423584 C758.84914705 1253.7347142 792.94124628 1246.85852911 826 1236 C827.79147461 1235.4124292 827.79147461 1235.4124292 829.61914062 1234.81298828 C874.89433745 1219.8842045 919.42993881 1201.24601657 960 1176 C960.75104004 1175.53674316 961.50208008 1175.07348633 962.27587891 1174.59619141 C988.42628769 1158.43773943 1013.52616591 1140.61773419 1036.89453125 1120.6328125 C1039.84420349 1118.11661783 1042.85470418 1115.68107031 1045.875 1113.25 C1049.55156323 1110.25979951 1052.96057575 1107.17244417 1056.24194336 1103.75708008 C1057.88642581 1102.1135111 1059.58098461 1100.62477396 1061.359375 1099.12890625 C1067.08738763 1094.14951168 1072.40012455 1088.74917481 1077.75463867 1083.37573242 C1079.55862085 1081.56639067 1081.36788665 1079.76245681 1083.17773438 1077.95898438 C1089.00055638 1072.13951887 1094.66386131 1066.27423766 1100 1060 C1101.640583 1058.2035245 1103.28585216 1056.41130798 1104.9375 1054.625 C1108.73660857 1050.45454999 1112.34557287 1046.19849017 1115.828125 1041.76171875 C1117.42702843 1039.72858076 1119.0395227 1037.71293667 1120.671875 1035.70703125 C1146.61917035 1003.75608971 1168.70756158 969.09189368 1187.5 932.5 C1195.22746881 917.45337802 1195.22746881 917.45337802 1199.01733398 910.79467773 C1200.9623849 907.24236239 1202.41181755 903.49228823 1203.89453125 899.73046875 C1205.60623064 895.40007389 1207.38212114 891.14681785 1209.375 886.9375 C1212.2032209 880.80968806 1214.37944028 874.48870441 1216.5703125 868.11328125 C1218.38183985 862.85469035 1220.33989226 857.66043908 1222.39453125 852.4921875 C1226.51915272 841.97042585 1229.51811576 831.2722061 1232.38085938 820.34716797 C1233.58150198 815.7955205 1234.88593284 811.31357563 1236.43798828 806.87060547 C1238.00255236 802.18916604 1239.0623248 797.4994859 1240.0078125 792.66015625 C1240.17876434 791.81198837 1240.34971619 790.9638205 1240.52584839 790.08995056 C1241.06426702 787.41517548 1241.59516048 784.73898651 1242.125 782.0625 C1242.66299224 779.36124048 1243.20263329 776.66033693 1243.74557495 773.96006775 C1244.08147317 772.28797101 1244.41436386 770.61526667 1244.743927 768.94190979 C1245.88826707 763.22346586 1245.88826707 763.22346586 1247 761 C1247.34990499 758.87300402 1247.6547909 756.73852787 1247.9375 754.6015625 C1248.11023437 753.31765625 1248.28296875 752.03375 1248.4609375 750.7109375 C1248.64091527 749.34899666 1248.82059975 747.98701703 1249 746.625 C1249.35141795 743.97096984 1249.70623322 741.31745239 1250.0625 738.6640625 C1250.21847656 737.48279785 1250.37445312 736.3015332 1250.53515625 735.08447266 C1251 732 1251 732 1251.51367188 730.05615234 C1252.26256638 726.88989255 1252.45534042 723.6728286 1252.71875 720.4375 C1252.78155151 719.69153564 1252.84435303 718.94557129 1252.90905762 718.17700195 C1253.04174953 716.59014189 1253.17277005 715.00314131 1253.30224609 713.41601562 C1253.49481339 711.06336629 1253.69422345 708.71137624 1253.89453125 706.359375 C1255.46001125 687.67208592 1256.18293344 669.06457624 1256.125 650.3125 C1256.12278442 649.34967102 1256.12056885 648.38684204 1256.11828613 647.39483643 C1256.05285854 623.06130759 1254.85423197 599.3261246 1251.77680969 575.19277954 C1251.32133127 571.61459172 1250.88520484 568.03545886 1250.48022461 564.45117188 C1250.39441635 563.69646606 1250.30860809 562.94176025 1250.22019958 562.16418457 C1250.05837493 560.7311639 1249.89927061 559.29783206 1249.74354553 557.86413574 C1249.09557181 552.14898041 1247.93282567 546.66030649 1246.6484375 541.05859375 C1246.11111724 538.52412528 1245.76392813 536.13790257 1245.5625 533.5625 C1245.08353994 528.46894393 1243.61248473 523.70122257 1242.2421875 518.78515625 C1240.27020986 511.44285854 1238.76452889 503.97994804 1237.19458008 496.54345703 C1235.8770579 490.43498518 1234.29157845 484.80657413 1232 479 C1231.30007923 476.50910551 1230.63248703 474.0088652 1230 471.5 C1228.62875085 466.17798243 1226.99541879 461.11868298 1225 456 C1224.25035225 453.5705133 1223.53785534 451.133395 1222.84375 448.6875 C1221.7072341 445.06748638 1220.35903523 441.54153322 1219 438 C1218.59539551 436.94329102 1218.59539551 436.94329102 1218.18261719 435.86523438 C1196.28003698 378.8824934 1167.0671041 325.53802811 1130 277 C1129.52014648 276.36852051 1129.04029297 275.73704102 1128.54589844 275.08642578 C1119.35589682 263.03538592 1109.39079675 251.64818347 1099.1953125 240.44140625 C1097.95891622 239.06641039 1096.72898596 237.68531554 1095.52229309 236.28417969 C1091.32068811 231.41117264 1086.93455676 226.78778489 1082.37890625 222.24609375 C1081.67531479 221.54154556 1080.97172333 220.83699738 1080.24681091 220.11109924 C1078.76985352 218.63346633 1077.29165258 217.15707543 1075.81225586 215.68188477 C1073.56834915 213.44333519 1071.32983296 211.19949527 1069.09179688 208.95507812 C1067.64615382 207.51009596 1066.20020055 206.06542408 1064.75390625 204.62109375 C1064.0953212 203.96048447 1063.43673615 203.29987518 1062.75819397 202.61924744 C1058.33278316 198.21571881 1053.74180714 194.05969065 1049 190 C1048.47353882 189.54594788 1047.94707764 189.09189575 1047.40466309 188.62408447 C1023.12911872 167.74616952 997.52843366 147.93073335 970.13818359 131.29931641 C967.88527013 129.93028176 965.64012408 128.54897329 963.39453125 127.16796875 C950.519236 119.29835928 937.35713465 112.01717166 924 105 C923.0414209 104.4946875 922.0828418 103.989375 921.09521484 103.46875 C892.63118456 88.5647955 862.51218973 76.68925729 832.00390625 66.66650391 C830.048817 66.01623665 828.10816958 65.33390885 826.16796875 64.640625 C805.39473371 57.31583704 783.77627584 52.67769228 762.16259766 48.6015625 C758.90032388 47.98104045 755.64362779 47.33554628 752.38671875 46.6875 C716.68644709 39.68871504 680.61991817 37.59331223 644.31382751 37.68194199 C641.96202526 37.68759122 639.61023025 37.69040591 637.25842285 37.69302368 C614.71481962 37.72949778 592.38834157 38.11604022 570 41 Z " fill="#FEFEFE" transform="translate(0,0)"/>
<path d="M0 0 C59.07 0 118.14 0 179 0 C179 2.97 179 5.94 179 9 C177.77667969 9.03738281 176.55335938 9.07476562 175.29296875 9.11328125 C146.42566582 10.16242332 119.1396365 16.16657563 97 36 C95.7934375 37.02867187 95.7934375 37.02867187 94.5625 38.078125 C85.13032905 46.27232351 77.06202179 55.57445778 69.24609375 65.28515625 C66.9116941 68.10673495 64.48009402 70.80590712 62 73.5 C58.70668301 77.07792463 55.55348679 80.71539666 52.5 84.5 C48.66164586 89.25739668 44.60377641 93.75783918 40.46484375 98.25390625 C38.07292703 100.91875166 35.80745116 103.64831825 33.5625 106.4375 C29.90493736 110.97236161 26.05382973 115.25536183 22.08837891 119.51708984 C18.28601193 123.62779276 14.75729408 127.92275584 11.24609375 132.28515625 C8.9116941 135.10673495 6.48009402 137.80590712 4 140.5 C0.70668301 144.07792463 -2.44651321 147.71539666 -5.5 151.5 C-9.33835414 156.25739668 -13.39622359 160.75783918 -17.53515625 165.25390625 C-19.92707297 167.91875166 -22.19254884 170.64831825 -24.4375 173.4375 C-28.09506264 177.97236161 -31.94617027 182.25536183 -35.91162109 186.51708984 C-39.71398807 190.62779276 -43.24270592 194.92275584 -46.75390625 199.28515625 C-49.88167179 203.06567286 -53.21273883 206.64480875 -56.53515625 210.25390625 C-58.92707297 212.91875166 -61.19254884 215.64831825 -63.4375 218.4375 C-67.09506264 222.97236161 -70.94617027 227.25536183 -74.91162109 231.51708984 C-78.71398807 235.62779276 -82.24270592 239.92275584 -85.75390625 244.28515625 C-88.0883059 247.10673495 -90.51990598 249.80590712 -93 252.5 C-97.89661131 257.82306579 -102.46149131 263.3715345 -107 269 C-108.65839866 271.00712736 -110.32789773 273.00426503 -112 275 C-110.58261511 278.25207092 -108.87473588 280.31361067 -106.3125 282.75 C-103.55768063 285.4302304 -100.94075141 288.14581567 -98.4375 291.0625 C-96.21355559 293.64953738 -93.93389732 296.10946833 -91.5 298.5 C-89.06610268 300.89053167 -86.78644441 303.35046262 -84.5625 305.9375 C-82.14382221 308.74576347 -79.64100317 311.39970593 -77 314 C-73.74970017 317.20029522 -70.75275755 320.54224576 -67.78125 324 C-65.9257479 326.08337078 -63.98776899 328.04281207 -62 330 C-58.74970017 333.20029522 -55.75275755 336.54224576 -52.78125 340 C-50.9257479 342.08337078 -48.98776899 344.04281207 -47 346 C-43.74970017 349.20029522 -40.75275755 352.54224576 -37.78125 356 C-35.29742572 358.78885533 -32.63288563 361.37686983 -29.97265625 363.99609375 C-27.42662171 366.58246151 -25.07978443 369.3153528 -22.71484375 372.06640625 C-21.03995701 373.95494597 -19.30052413 375.73155648 -17.5 377.5 C-15.06610268 379.89053167 -12.78644441 382.35046262 -10.5625 384.9375 C-8.14382221 387.74576347 -5.64100317 390.39970593 -3 393 C0.25029983 396.20029522 3.24724245 399.54224576 6.21875 403 C8.70257428 405.78885533 11.36711437 408.37686983 14.02734375 410.99609375 C16.57337829 413.58246151 18.92021557 416.3153528 21.28515625 419.06640625 C22.96004299 420.95494597 24.69947587 422.73155648 26.5 424.5 C28.93389732 426.89053167 31.21355559 429.35046262 33.4375 431.9375 C35.85617779 434.74576347 38.35899683 437.39970593 41 440 C44.25029983 443.20029522 47.24724245 446.54224576 50.21875 450 C52.70257428 452.78885533 55.36711437 455.37686983 58.02734375 457.99609375 C60.57337829 460.58246151 62.92021557 463.3153528 65.28515625 466.06640625 C66.96004299 467.95494597 68.69947587 469.73155648 70.5 471.5 C72.93389732 473.89053167 75.21355559 476.35046262 77.4375 478.9375 C79.85617779 481.74576347 82.35899683 484.39970593 85 487 C87.59982183 489.55990134 90.06268398 492.1677954 92.4375 494.9375 C95.00665271 497.92801716 97.69317256 500.73116684 100.5 503.5 C103.9288279 506.88241399 107.12048518 510.38070442 110.25390625 514.03515625 C112.7235936 516.81424514 115.37903322 519.38860496 118.02734375 521.99609375 C120.57337829 524.58246151 122.92021557 527.3153528 125.28515625 530.06640625 C126.96004299 531.95494597 128.69947587 533.73155648 130.5 535.5 C132.93389732 537.89053167 135.21355559 540.35046262 137.4375 542.9375 C139.85617779 545.74576347 142.35899683 548.39970593 145 551 C148.27202128 554.2215855 151.29316055 557.58592145 154.28515625 561.06640625 C155.96004299 562.95494597 157.69947587 564.73155648 159.5 566.5 C161.87224102 568.83025445 164.09113517 571.22104406 166.25 573.75 C169.18279548 577.15838393 172.30071354 580.34400565 175.5 583.5 C179.30574113 587.2542426 182.91490705 591.10978471 186.39453125 595.16796875 C190.75623224 600.14518959 195.57775296 604.56007287 200.58984375 608.8671875 C202.47070763 610.53161486 204.30605077 612.21897076 206.12890625 613.9453125 C213.5862124 621.00353708 221.25972389 627.50986139 229.40527344 633.75634766 C231.75755738 635.59078342 234.03015016 637.51715429 236.3125 639.4375 C248.7546193 649.65716168 262.37897554 658.44819197 276 667 C276.59925293 667.37688965 277.19850586 667.7537793 277.81591797 668.14208984 C300.12526141 682.07527184 323.85272631 695.04233118 349 703 C350.1958666 696.8631329 351.36595426 690.72192319 352.51269531 684.57568359 C352.89524271 682.55370209 353.29909487 680.53574983 353.7109375 678.51953125 C356.69087213 662.5185779 355.88597038 645.74401732 352 630 C351.70996094 628.7625 351.41992188 627.525 351.12109375 626.25 C347.31850924 610.97602039 341.48288048 596.81534582 334 583 C333.66129883 582.3723877 333.32259766 581.74477539 332.97363281 581.09814453 C320.25643757 557.90405767 300.87426416 537.99641206 279.73486328 522.31591797 C276.47781598 519.84540221 273.34385965 517.22199024 270.1875 514.625 C264.01089869 509.5708053 257.71668592 504.69528847 251.35620117 499.87548828 C245.81138457 495.65876767 240.4042976 491.29326982 235.01953125 486.875 C230.25466612 482.98072909 225.40447367 479.21647509 220.5 475.5 C214.16782975 470.70007467 207.96205139 465.77064022 201.81298828 460.73876953 C195.84476408 455.85755671 189.79422404 451.08815899 183.71777344 446.34277344 C180.80728392 444.06766082 177.90401293 441.78336957 175 439.5 C171.51348899 436.75945374 168.02621842 434.01990368 164.53515625 431.28515625 C157.86245409 426.0552005 151.2178015 420.79264678 144.61010742 415.48071289 C141.56007576 413.03238546 138.4989293 410.60296216 135.3984375 408.21875 C113.65251599 391.48119822 97.09534824 373.00682247 87 347 C86.61972656 346.08347656 86.23945312 345.16695312 85.84765625 344.22265625 C76.34213919 319.22135288 77.84792211 288.53887797 84 263 C84.1659668 262.26845703 84.33193359 261.53691406 84.50292969 260.78320312 C92.71988807 225.32399352 116.0400801 195.75217351 146 176 C146.81082031 175.4534375 147.62164063 174.906875 148.45703125 174.34375 C172.71419934 158.80593876 201.72457181 155.38169987 229.875 155.5625 C230.84269318 155.56454437 231.81038635 155.56658875 232.80740356 155.56869507 C252.35226687 155.63547912 271.57632547 156.99996864 290.63671875 161.59375 C299.50066631 163.54286767 308.34008271 163.56538278 317.375 163.6875 C319.09377444 163.72076556 320.81252549 163.75526328 322.53125 163.79101562 C326.68736803 163.87484195 330.84344279 163.94213684 335 164 C335.74860288 198.67132574 336.15180554 233.3206079 336 268 C333.36 268 330.72 268 328 268 C326.91837056 264.75511167 326.85998784 262.22605121 326.75 258.8125 C325.35144044 238.23672216 315.37765152 218.84505014 299.96484375 205.24609375 C292.09602518 198.68566782 283.28970502 194.20370694 274 190 C273.10539062 189.57847656 272.21078125 189.15695312 271.2890625 188.72265625 C257.71431975 182.74706351 242.37637407 181.82058087 227.75 181.8125 C226.02330078 181.79413086 226.02330078 181.79413086 224.26171875 181.77539062 C197.97633054 181.73093957 174.2342142 192.19399938 155.25 210.1875 C134.03056159 232.34446882 128.4296898 258.96293875 128.71875 288.7734375 C128.93267736 297.07167989 130.16377019 304.19343911 133 312 C133.38542969 313.07894531 133.77085937 314.15789062 134.16796875 315.26953125 C142.63163233 337.04497638 159.0760322 352.06894023 177.33203125 365.73925781 C180.23229108 367.93143313 183.0833767 370.18579037 185.9375 372.4375 C187.1145595 373.36461359 188.29164289 374.29169686 189.46875 375.21875 C190.05269531 375.67894531 190.63664062 376.13914062 191.23828125 376.61328125 C192.97989788 377.98417682 194.72387885 379.35199991 196.46875 380.71875 C201.81997893 384.91207981 207.15784254 389.11942756 212.45507812 393.38085938 C218.38671351 398.15236418 224.37334995 402.83539728 230.4375 407.4375 C236.72461783 412.20998428 242.87841971 417.11828174 248.98022461 422.12475586 C253.7451229 426.01916076 258.5953639 429.78355443 263.5 433.5 C269.76927672 438.25049019 275.90276001 443.13734706 281.98266602 448.12719727 C286.7240889 452.00305307 291.55370549 455.74318276 296.4375 459.4375 C303.85426385 465.05320829 311.04728802 470.90763424 318.19921875 476.85546875 C321.17727691 479.33072838 324.19682749 481.7426376 327.25 484.125 C342.17259517 496.02274479 356.36424838 509.88759029 368 525 C368.93073414 526.16687046 369.8617404 527.33352391 370.79296875 528.5 C379.05236613 539.00594266 385.74209837 550.20661627 392 562 C392.38671875 562.72799805 392.7734375 563.45599609 393.171875 564.20605469 C402.57019095 582.22800656 408.65298427 601.99086509 412 622 C412.22429688 623.26328125 412.44859375 624.5265625 412.6796875 625.828125 C414.12173504 635.58663847 414.17902097 645.34236269 414.1875 655.1875 C414.18858765 655.86469086 414.18967529 656.54188171 414.1907959 657.23959351 C414.18852281 669.74709067 413.96933127 682.24820107 411.25 694.5 C411.07952148 695.29317627 410.90904297 696.08635254 410.73339844 696.90356445 C409.09832405 704.17730548 406.75568969 711.07689434 404 718 C405.299375 717.979375 406.59875 717.95875 407.9375 717.9375 C411.0462528 717.88815472 414.04315762 718.1006611 417.125 718.46875 C422.42838735 719.08882652 427.7298755 719.3361325 433.0625 719.5625 C434.02349609 719.60568359 434.98449219 719.64886719 435.97460938 719.69335938 C438.31628963 719.79821073 440.65812976 719.89948137 443 720 C443 722.97 443 725.94 443 729 C430.85735522 731.89570225 418.971583 734.11469977 406.54833984 735.30297852 C405.76023926 735.37959717 404.97213867 735.45621582 404.16015625 735.53515625 C403.45511963 735.600979 402.75008301 735.66680176 402.02368164 735.73461914 C397.91892122 736.09730933 397.91892122 736.09730933 394.78662109 738.46777344 C394.45227051 739.09200195 394.11791992 739.71623047 393.7734375 740.359375 C393.38687988 741.05635498 393.00032227 741.75333496 392.60205078 742.47143555 C391.99466064 743.59932495 391.99466064 743.59932495 391.375 744.75 C386.85956323 752.75707317 381.8783891 759.91348881 376 767 C375.52272461 767.57878906 375.04544922 768.15757812 374.55371094 768.75390625 C364.98598534 780.29750742 354.89755659 790.80787184 343 800 C341.515 801.16982422 341.515 801.16982422 340 802.36328125 C323.33059996 815.11378423 303.91906295 823.72428612 284 830 C282.81857422 830.3724585 282.81857422 830.3724585 281.61328125 830.75244141 C276.12820642 832.43218737 270.6035294 833.77939713 265 835 C264.14809082 835.19609863 263.29618164 835.39219727 262.41845703 835.59423828 C246.59613592 839.09916469 230.8820577 839.37173814 214.75 839.375 C213.74023102 839.37690338 212.73046204 839.37880676 211.69009399 839.38076782 C192.9904651 839.37678276 174.1037144 838.83551572 155.875 834.3125 C154.78936768 834.05049805 153.70373535 833.78849609 152.58520508 833.51855469 C120.42172353 825.51371553 87.94878754 810.53348642 65 786 C63.33469221 784.33197556 61.66791651 782.66541589 60 781 C38.18840543 759.11396313 25.50907629 729.26698911 18.625 699.5 C18.469104 698.83121826 18.31320801 698.16243652 18.15258789 697.47338867 C12.92374926 672.86938065 14.04691181 644.03519661 21 620 C21.46363044 618.27511283 21.92587566 616.54985272 22.38671875 614.82421875 C28.7752421 591.63394553 38.88918749 569.64199152 54.46777344 551.16137695 C56.15884301 549.15128234 56.15884301 549.15128234 58 546 C57.44486055 541.10126946 53.23919955 537.94159401 49.8125 534.6875 C48.62572807 533.5331757 47.44081697 532.37693505 46.2578125 531.21875 C45.69094727 530.66445313 45.12408203 530.11015625 44.54003906 529.5390625 C42.08556086 527.08614072 39.84969318 524.46741641 37.60546875 521.82421875 C35.19218534 519.08211814 32.5705291 516.56175172 29.96875 514 C27.44574541 511.43694772 25.12437183 508.72654176 22.78125 506 C20.9257479 503.91662922 18.98776899 501.95718793 17 500 C13.74970017 496.79970478 10.75275755 493.45775424 7.78125 490 C5.9257479 487.91662922 3.98776899 485.95718793 2 484 C-0.59982183 481.44009866 -3.06268398 478.8322046 -5.4375 476.0625 C-8.00665271 473.07198284 -10.69317256 470.26883316 -13.5 467.5 C-16.9288279 464.11758601 -20.12048518 460.61929558 -23.25390625 456.96484375 C-25.72481389 454.18438168 -28.3816694 451.60881782 -31.03125 449 C-33.55425459 446.43694772 -35.87562817 443.72654176 -38.21875 441 C-40.0742521 438.91662922 -42.01223101 436.95718793 -44 435 C-47.25029983 431.79970478 -50.24724245 428.45775424 -53.21875 425 C-55.0742521 422.91662922 -57.01223101 420.95718793 -59 419 C-62.25029983 415.79970478 -65.24724245 412.45775424 -68.21875 409 C-70.0742521 406.91662922 -72.01223101 404.95718793 -74 403 C-76.59982183 400.44009866 -79.06268398 397.8322046 -81.4375 395.0625 C-84.00665271 392.07198284 -86.69317256 389.26883316 -89.5 386.5 C-92.9288279 383.11758601 -96.12048518 379.61929558 -99.25390625 375.96484375 C-101.09615675 373.89179676 -103.02401662 371.94564198 -105 370 C-107.59982183 367.44009866 -110.06268398 364.8322046 -112.4375 362.0625 C-115.00665271 359.07198284 -117.69317256 356.26883316 -120.5 353.5 C-123.9288279 350.11758601 -127.12048518 346.61929558 -130.25390625 342.96484375 C-132.72481389 340.18438168 -135.3816694 337.60881782 -138.03125 335 C-140.55425459 332.43694772 -142.87562817 329.72654176 -145.21875 327 C-147.0742521 324.91662922 -149.01223101 322.95718793 -151 321 C-153.59982183 318.44009866 -156.06268398 315.8322046 -158.4375 313.0625 C-162.38435854 308.46696795 -166.67483483 304.23689649 -171 300 C-169.57097639 295.62511208 -167.20402756 292.6280013 -164.1875 289.25 C-159.81584845 284.22598255 -155.69486753 279.06855916 -151.6875 273.75 C-146.64999908 267.0817672 -141.43277487 260.59498873 -136.09277344 254.16723633 C-132.01529004 249.25324415 -128.03749305 244.27398205 -124.11279297 239.23754883 C-120.63101611 234.77871027 -117.07727734 230.38247928 -113.5 226 C-108.97238641 220.45088017 -104.5048401 214.86084199 -100.09375 209.21875 C-96.25891452 204.31682986 -92.37277659 199.45740682 -88.47802734 194.60302734 C-85.14512078 190.44415361 -81.84508715 186.26115799 -78.5625 182.0625 C-74.05741077 176.30382072 -69.45883855 170.6257169 -64.83618164 164.96118164 C-60.88593176 160.11242979 -57.00726504 155.21286149 -53.15966797 150.2824707 C-49.70625289 145.86894401 -46.17503854 141.52350154 -42.625 137.1875 C-38.15826178 131.72712559 -33.81931705 126.18785659 -29.5625 120.5625 C-24.56347568 113.960215 -19.38366203 107.53615642 -14.09228516 101.16650391 C-10.01482228 96.25287144 -6.03731328 91.27375135 -2.11279297 86.23754883 C1.36899396 81.77869737 4.92326316 77.38293196 8.5 73 C28.23909441 51.2747384 28.23909441 51.2747384 34 24 C32.04314226 18.24830131 28.28987984 15.02034011 23.16015625 12.0078125 C17.86245272 9.53618952 12.9289139 8.64494948 7.125 8.375 C6.43664062 8.33632813 5.74828125 8.29765625 5.0390625 8.2578125 C3.35976754 8.16451834 1.67992233 8.08121762 0 8 C0 5.36 0 2.72 0 0 Z " fill="#010001" transform="translate(569,313)"/>
<path d="M0 0 C3.82303999 1.7695357 5.93973328 3.89004052 8.75 7.0625 C9.7174978 8.14174885 10.6863322 9.21980048 11.65625 10.296875 C12.18476562 10.88533203 12.71328125 11.47378906 13.2578125 12.08007812 C16.54281063 15.70020498 19.89864017 19.25391572 23.25 22.8125 C24.2414502 23.86932983 24.2414502 23.86932983 25.25292969 24.94750977 C28.30287348 28.1879796 31.37590507 31.38935621 34.546875 34.51171875 C36.81461762 36.7596489 38.93936554 39.06104494 41.00390625 41.49609375 C46.31488333 47.64556819 52.15480381 53.30327139 57.90600586 59.03637695 C59.9326298 61.05764268 61.95385547 63.08419574 63.97460938 65.11132812 C70.14462062 71.28485627 76.2985036 77.39749771 83 83 C84.10695735 83.96052673 85.2124499 84.9227444 86.31640625 85.88671875 C109.28055727 105.75091955 133.64557679 123.86212404 160 139 C161.18843506 139.68449219 161.18843506 139.68449219 162.40087891 140.3828125 C190.12305412 156.2270815 219.63865184 168.57555354 251 175 C252.75157021 175.37243914 254.50285803 175.74620809 256.25390625 176.12109375 C260.83255385 177.09752124 265.41501285 178.05381165 270 179 C253.62383901 212.85788559 220.7203291 234.35139622 186.18432617 246.46704102 C156.37643447 256.57317366 118.79507555 259.71035229 88.07861328 251.546875 C86.09025455 251.02374562 84.09781754 250.56588675 82.08984375 250.125 C45.53613727 241.51508386 10.27646707 215.11551011 -9.78662109 183.51904297 C-14.16657435 176.33259458 -17.67411688 168.71972871 -21 161 C-21.41121094 160.04609375 -21.82242188 159.0921875 -22.24609375 158.109375 C-24.44909191 152.52044582 -25.85457654 146.78254951 -27.1875 140.9375 C-27.35475586 140.20539307 -27.52201172 139.47328613 -27.69433594 138.71899414 C-30.1330432 127.43431626 -30.24129362 116.12200008 -30.25 104.625 C-30.25067474 103.82353546 -30.25134949 103.02207092 -30.25204468 102.19631958 C-30.23562669 89.90753336 -29.75683896 78.0238355 -27 66 C-26.81775879 65.19868652 -26.63551758 64.39737305 -26.44775391 63.57177734 C-25.14223159 57.99304162 -23.64076566 52.48882792 -22 47 C-21.66613281 45.87078125 -21.33226562 44.7415625 -20.98828125 43.578125 C-16.03122144 28.46738507 -8.71031948 13.28964185 0 0 Z " fill="#B26ADD" transform="translate(636,867)"/>
<path d="M0 0 C61.38 0 122.76 0 186 0 C186 2.97 186 5.94 186 9 C184.70707031 9.02578125 183.41414062 9.0515625 182.08203125 9.078125 C163.45888351 9.61467551 149.20729278 13.50936086 135.328125 26.515625 C128.886411 33.3896688 125.11359128 40.87904072 123 50 C122.82735229 50.53860643 122.65470458 51.07721286 122.47682512 51.6321407 C121.77820434 55.10141204 121.85749461 58.55319747 121.86298561 62.07715511 C121.86033378 62.90180209 121.85768196 63.72644908 121.85494977 64.57608536 C121.84725063 67.3573705 121.84669736 70.13861153 121.84609985 72.91990662 C121.84208563 74.92699728 121.83764747 76.93408713 121.8328203 78.941176 C121.82084434 84.47100805 121.81520397 90.00083138 121.81063914 95.53067386 C121.80468687 101.48933223 121.79307604 107.44798015 121.78234863 113.40663147 C121.75897509 127.12415541 121.74441587 140.84168351 121.73211922 154.55922088 C121.72786383 159.306107 121.72329809 164.05299272 121.7185359 168.79987836 C121.69327336 194.04553683 121.67122776 219.29119595 121.65880775 244.53686428 C121.65588648 250.38582296 121.65291895 256.23478161 121.64990234 262.08374023 C121.64953143 262.81039206 121.64916053 263.53704388 121.64877838 264.28571545 C121.63662719 287.83703576 121.60569029 311.38828127 121.56398082 334.93956646 C121.52117062 359.1566079 121.49456383 383.37360985 121.48933304 407.59069016 C121.48859262 411.01297035 121.48768194 414.43525047 121.48667526 417.85753059 C121.48648465 418.53104553 121.48629403 419.20456046 121.48609764 419.89848494 C121.48258756 430.72643675 121.46230576 441.55429472 121.43587863 452.3822121 C121.40970039 463.27263464 121.40243429 474.16294388 121.41297992 485.053393 C121.41816609 490.95069592 121.41528186 496.84770112 121.39051437 502.74496078 C121.3680111 508.14826701 121.36877063 513.55106181 121.38771825 518.95437706 C121.3905167 520.9046848 121.38492843 522.8550273 121.36990531 524.80527919 C121.24763717 541.71762538 124.51449354 555.39255192 136.1796875 568.4375 C147.71759647 579.63494608 161.33598373 584.03937333 177.0625 584.625 C177.92810547 584.66367187 178.79371094 584.70234375 179.68554688 584.7421875 C181.79006359 584.83520481 183.8950009 584.91862669 186 585 C186 587.64 186 590.28 186 593 C124.95 593 63.9 593 1 593 C1 590.36 1 587.72 1 585 C2.22074219 584.97421875 3.44148437 584.9484375 4.69921875 584.921875 C22.67268151 584.3744506 38.19137596 580.44905524 51 567 C60.32105436 555.65938386 65.33801404 543.05369668 65.25726891 528.40130997 C65.26077498 527.58102401 65.26428105 526.76073805 65.26789337 525.91559494 C65.27716416 523.17919588 65.27229527 520.44301166 65.26742554 517.706604 C65.27116397 515.71994598 65.27576626 513.73328943 65.28115618 511.7466352 C65.29337762 506.29649184 65.29312672 500.8464099 65.29076743 495.39625597 C65.29035905 489.51471036 65.30140041 483.63318439 65.31088257 477.75164795 C65.32748865 466.23214128 65.33299193 454.71265508 65.33410732 443.19313744 C65.33502715 433.82894813 65.33914767 424.46476546 65.34550858 415.10057831 C65.34730372 412.40306338 65.34908335 409.70554845 65.35085833 407.00803351 C65.35130043 406.33738378 65.35174252 405.66673405 65.35219802 404.9757616 C65.3645028 386.11697081 65.37239951 367.25818233 65.37151146 348.39938736 C65.3714803 347.6886707 65.37144914 346.97795404 65.37141704 346.24570051 C65.37125083 342.64366471 65.37105275 339.04162891 65.37084763 335.43959311 C65.37080774 334.72424281 65.37076785 334.00889252 65.37072675 333.27186494 C65.37064587 331.82525295 65.37056228 330.37864095 65.37047596 328.93202896 C65.36925059 306.4276419 65.38426255 283.92331512 65.41162109 261.41894531 C65.44236089 236.12295756 65.45955246 210.82700941 65.45769465 185.53100181 C65.45754539 182.83222946 65.45744798 180.13345711 65.45738602 177.43468475 C65.45735105 176.43795946 65.45735105 176.43795946 65.45731538 175.4210983 C65.45725772 165.40199046 65.46794055 155.38293215 65.48405075 145.3638382 C65.5022629 133.96454853 65.50660949 122.56535768 65.4930319 111.16605976 C65.48650264 105.35180246 65.48638387 99.53773474 65.5037384 93.72349548 C65.51947544 88.39630755 65.51659874 83.06945942 65.49917014 77.74227974 C65.49610169 75.81971763 65.49972673 73.89713011 65.51089029 71.97459796 C65.60992301 53.70307739 62.31761698 38.50674147 49.3125 24.6875 C34.8270254 11.07728066 18.94673511 9.58020625 0 9 C0 6.03 0 3.06 0 0 Z " fill="#000001" transform="translate(250,313)"/>
<path d="M0 0 C4.35199697 3.20634307 7.61944862 6.30086705 9.375 11.5 C10.16736283 17.21633188 10.46369852 23.19490932 7.875 28.5 C4.1429247 32.97849036 -0.11103108 35.66201036 -5.625 37.5 C-11.75464063 38.00242956 -14.75700251 37.61075344 -19.625 33.5 C-24.54664707 28.34943911 -27.69515374 23.21223152 -28.0625 16 C-27.87006086 11.46613378 -26.59306803 7.95450141 -23.625 4.5 C-16.5683842 -1.90590328 -8.9010231 -5.46502084 0 0 Z " fill="#05050B" transform="translate(343.625,164.5)"/>
<path d="M0 0 C4.02893932 3.13361947 5.78590658 6.26348556 6.8125 11.1875 C7.35194619 16.89318089 7.13230462 21.31845323 3.8125 26.1875 C-1.39030128 31.39030128 -6.39539267 33.15296378 -13.625 33.625 C-19.99282511 33.47286766 -24.24935769 30.17664606 -28.5625 25.75 C-31.7618596 20.70485601 -32.80277701 16.13517776 -32.1875 10.1875 C-30.37528997 4.96637596 -28.00281086 1.09908331 -23.1875 -1.8125 C-14.70128774 -4.95554158 -7.81997343 -4.44665156 0 0 Z " fill="#090408" transform="translate(1202.1875,604.8125)"/>
<path d="M0 0 C5.6763602 4.52631696 8.85985219 9.83045791 10.13671875 16.96875 C10.54248069 23.01356248 8.53578332 27.0734076 4.7265625 31.67578125 C0.37022844 35.81429861 -3.22531915 37.51323217 -9.2109375 37.98828125 C-14.00710211 37.82630946 -17.37147562 36.47763987 -20.90625 33.12890625 C-26.57838643 26.93613894 -27.9324031 20.98419948 -27.77734375 12.65234375 C-26.77710688 6.74396785 -22.99457493 3.7012052 -18.37890625 0.265625 C-12.46018513 -3.29042944 -6.01732066 -3.5049342 0 0 Z " fill="#06040A" transform="translate(417.2734375,126.32421875)"/>
<path d="M0 0 C3.49406769 1.66762322 4.82670681 2.74006022 7 6 C7.125 9.1875 7.125 9.1875 7 12 C8.0725 12.226875 9.145 12.45375 10.25 12.6875 C14.52548424 14.18391948 15.9463825 14.97833239 18 19 C18.42528647 23.70418917 17.58257959 27.07914839 15.0625 31.0625 C11.15193438 35.16975088 6.49313508 38.56253355 2 42 C-1.46899838 40.55774684 -3.1755857 38.84722592 -5.4375 35.875 C-8.04658809 32.48715368 -10.68944975 29.15695915 -13.4453125 25.88671875 C-14.04158447 25.17338379 -14.63785645 24.46004883 -15.25219727 23.72509766 C-16.45112252 22.29285491 -17.65727493 20.86662859 -18.87084961 19.44677734 C-19.4200708 18.78500488 -19.96929199 18.12323242 -20.53515625 17.44140625 C-21.28357788 16.55497437 -21.28357788 16.55497437 -22.04711914 15.65063477 C-22.36156982 15.10592529 -22.67602051 14.56121582 -23 14 C-21.71294644 10.13883933 -19.35557769 8.73033545 -16.1875 6.4375 C-15.12917969 5.65246094 -14.07085937 4.86742187 -12.98046875 4.05859375 C-8.40681162 0.89959335 -5.6526751 -0.57680358 0 0 Z " fill="#05050B" transform="translate(272,208)"/>
<path d="M0 0 C4.08350813 0.14117063 8.16675906 0.28881677 12.25 0.4375 C13.95929688 0.49647461 13.95929688 0.49647461 15.703125 0.55664062 C23.1589468 0.83199768 30.57105863 1.30978258 38 2 C38.66796875 5.078125 38.66796875 5.078125 38 9 C34.78199249 11.83825249 31.08464968 13.73723965 27.3125 15.75 C26.30509766 16.31332031 25.29769531 16.87664063 24.25976562 17.45703125 C22.37560567 18.50917602 20.48530783 19.55045698 18.5871582 20.57714844 C16.02209548 21.98784821 13.51021745 23.49386953 11 25 C19.25 25.66 27.5 26.32 36 27 C36 29.31 36 31.62 36 34 C27.55525104 34.15564365 19.22814068 33.67143656 10.8125 33 C9.57435547 32.90460937 8.33621094 32.80921875 7.06054688 32.7109375 C4.04005322 32.47769475 1.01991131 32.24064568 -2 32 C-2.35546875 28.76147461 -2.35546875 28.76147461 -2 25 C0.38671875 22.73657227 0.38671875 22.73657227 3.6875 20.81640625 C4.26459717 20.47117416 4.84169434 20.12594208 5.4362793 19.77024841 C7.27754281 18.67625922 9.13733953 17.61956222 11 16.5625 C12.25399553 15.82593138 13.50662001 15.08702322 14.7578125 14.34570312 C17.82164467 12.53137811 20.90794634 10.76901147 24 9 C16.08 8.34 8.16 7.68 0 7 C0 4.69 0 2.38 0 0 Z " fill="#0D050A" transform="translate(1172,684)"/>
<path d="M0 0 C2.4375 0.1875 2.4375 0.1875 5 1 C6.9882069 4.056053 7.41251832 6.9527809 7.81640625 10.53515625 C7.94080078 11.59154297 8.06519531 12.64792969 8.19335938 13.73632812 C8.31517578 14.83396484 8.43699219 15.93160156 8.5625 17.0625 C8.81109319 19.24119621 9.06227737 21.4195988 9.31640625 23.59765625 C9.42412354 24.56195557 9.53184082 25.52625488 9.64282227 26.51977539 C9.9430572 29.1254611 9.9430572 29.1254611 11 32 C14.63 25.07 18.26 18.14 22 11 C24.475 11.99 24.475 11.99 27 13 C28 16 28 16 26.69238281 19.07861328 C26.04037762 20.33167454 25.37644874 21.57857644 24.703125 22.8203125 C24.35368835 23.47957733 24.00425171 24.13884216 23.64422607 24.81808472 C22.90254197 26.2109649 22.15575628 27.60113872 21.40429688 28.98876953 C20.2546303 31.1164308 19.12639585 33.25447759 18 35.39453125 C17.27730334 36.74546737 16.55338535 38.09575098 15.828125 39.4453125 C15.49049133 40.08695343 15.15285767 40.72859436 14.80499268 41.38967896 C12.34507198 45.88497601 12.34507198 45.88497601 9 47 C6.87353516 46.32617188 6.87353516 46.32617188 5 45 C4.30224609 43.09570312 4.30224609 43.09570312 4.0234375 40.78125 C3.91 39.93046875 3.7965625 39.0796875 3.6796875 38.203125 C3.52886719 36.86507812 3.52886719 36.86507812 3.375 35.5 C3.15620922 33.76009241 2.93485362 32.02050542 2.7109375 30.28125 C2.54803223 28.98767578 2.54803223 28.98767578 2.38183594 27.66796875 C1.7721831 23.40819495 0.90028568 19.20660462 0 15 C-0.28198242 15.57032959 -0.56396484 16.14065918 -0.85449219 16.72827148 C-2.1387263 19.30541696 -3.44398554 21.87132833 -4.75 24.4375 C-5.1934375 25.33533203 -5.636875 26.23316406 -6.09375 27.15820312 C-6.53203125 28.01220703 -6.9703125 28.86621094 -7.421875 29.74609375 C-7.81987305 30.53685303 -8.21787109 31.3276123 -8.62792969 32.14233398 C-10 34 -10 34 -11.97363281 34.89086914 C-14 35 -14 35 -17 33 C-15.66320853 28.63080477 -13.95252258 24.77646333 -11.77734375 20.76171875 C-11.15666016 19.61251953 -10.53597656 18.46332031 -9.89648438 17.27929688 C-9.57510498 16.69011475 -9.25372559 16.10093262 -8.92260742 15.49389648 C-7.93216711 13.67772106 -6.94893092 11.85778775 -5.96679688 10.03710938 C-1.14959206 1.14959206 -1.14959206 1.14959206 0 0 Z " fill="#090409" transform="translate(889,143)"/>
<path d="M0 0 C2.52458117 0.56977342 5.04378339 1.1552722 7.5625 1.75 C8.26697266 1.90726562 8.97144531 2.06453125 9.69726562 2.2265625 C15.83682602 3.69779356 21.36344667 5.54517001 25 11 C25.33834017 15.19541805 25.43391951 17.91520123 23.875 21.8125 C20.92092347 25.25892262 18.11885219 26.78268183 13.5625 27.25 C8.54379462 27.36949299 5.83146215 26.93258486 1 25 C0.01 28.96 -0.98 32.92 -2 37 C-7 38 -7 38 -9 37 C-8.18143215 31.5065002 -6.9148088 26.14723561 -5.625 20.75 C-5.31175781 19.41388672 -5.31175781 19.41388672 -4.9921875 18.05078125 C-3.54296505 11.96227962 -1.86210628 5.97486222 0 0 Z " fill="#08040A" transform="translate(763,96)"/>
<path d="M0 0 C3.91477471 2.32929095 6.41886661 5.27741956 8.34375 9.39453125 C8.78762122 11.95644016 8.67052373 13.78034142 8.34375 16.39453125 C6.36375 16.39453125 4.38375 16.39453125 2.34375 16.39453125 C2.09625 15.48703125 1.84875 14.57953125 1.59375 13.64453125 C0.0592091 9.65472491 -1.81752596 7.31389327 -5.65625 5.39453125 C-9.41326858 4.86854865 -13.08375513 4.56690237 -16.51171875 6.37109375 C-21.07452847 10.04387392 -22.46093641 12.63670894 -23.09375 18.33203125 C-23.0211462 21.86981618 -22.67331002 22.3734307 -20.28125 25.33203125 C-16.44903524 28.34305713 -14.50388899 28.59651621 -9.65625 28.39453125 C-8.99625 28.06453125 -8.33625 27.73453125 -7.65625 27.39453125 C-7.42636494 25.03174389 -7.42636494 25.03174389 -10.15625 22.76953125 C-10.98125 21.98578125 -11.80625 21.20203125 -12.65625 20.39453125 C-11.99625 19.40453125 -11.33625 18.41453125 -10.65625 17.39453125 C-7.15780614 18.0284236 -4.81538124 19.44630819 -1.90625 21.45703125 C-1.10703125 22.00488281 -0.3078125 22.55273438 0.515625 23.1171875 C1.42054688 23.74947266 1.42054688 23.74947266 2.34375 24.39453125 C0.59308204 28.28062936 -1.83949006 31.67265383 -4.28125 35.14453125 C-4.70148437 35.74652344 -5.12171875 36.34851563 -5.5546875 36.96875 C-6.58618137 38.44566168 -7.62089579 39.92032319 -8.65625 41.39453125 C-12.53125 39.64453125 -12.53125 39.64453125 -13.65625 37.39453125 C-13.32625 36.73453125 -12.99625 36.07453125 -12.65625 35.39453125 C-13.23632812 35.30816406 -13.81640625 35.22179687 -14.4140625 35.1328125 C-21.5277643 33.85328528 -25.30071735 31.77079471 -29.53125 25.70703125 C-31.30563679 20.48244792 -31.85577145 15.4119941 -29.77734375 10.18359375 C-22.86674916 -1.72178703 -12.72045524 -5.555384 0 0 Z " fill="#070307" transform="translate(974.65625,193.60546875)"/>
<path d="M0 0 C-0.38857178 0.52956299 -0.77714355 1.05912598 -1.17749023 1.60473633 C-2.93483655 4.00441758 -4.68622079 6.40838791 -6.4375 8.8125 C-7.04916016 9.64587891 -7.66082031 10.47925781 -8.29101562 11.33789062 C-8.87431641 12.14033203 -9.45761719 12.94277344 -10.05859375 13.76953125 C-10.59798584 14.50792236 -11.13737793 15.24631348 -11.69311523 16.00708008 C-13.16341148 18.06391602 -13.16341148 18.06391602 -14 21 C-13.39800781 21.25523438 -12.79601562 21.51046875 -12.17578125 21.7734375 C-9.77013926 23.12958038 -8.77793685 24.39747173 -7.1875 26.625 C-4.66668062 29.73895335 -4.38739694 29.95626164 -0.125 30.4375 C0.90625 30.293125 1.9375 30.14875 3 30 C3.66 31.98 4.32 33.96 5 36 C1.57286781 38.10900443 -1.00871074 38.47895471 -5 38 C-9.86670214 35.5148755 -12.97547058 31.9609209 -16.38671875 27.8046875 C-18.06481085 25.7757779 -18.06481085 25.7757779 -21 24 C-20.7834375 25.10408203 -20.7834375 25.10408203 -20.5625 26.23046875 C-20.376875 27.20628906 -20.19125 28.18210937 -20 29.1875 C-19.814375 30.15042969 -19.62875 31.11335938 -19.4375 32.10546875 C-19.03122388 34.7934206 -18.92066428 37.28771019 -19 40 C-21.31 40 -23.62 40 -26 40 C-26.67729549 35.52237431 -27.33990223 31.04269063 -28 26.5625 C-28.19078125 25.30244141 -28.3815625 24.04238281 -28.578125 22.74414062 C-29.55171563 16.08547616 -30.23431482 9.72922871 -30 3 C-26.535 2.505 -26.535 2.505 -23 2 C-22.67 7.28 -22.34 12.56 -22 18 C-21.34 18 -20.68 18 -20 18 C-19.75765625 17.30261719 -19.5153125 16.60523437 -19.265625 15.88671875 C-17.7854791 12.51070696 -15.92396163 9.78875699 -13.75 6.8125 C-13.00234375 5.76707031 -12.2546875 4.72164063 -11.484375 3.64453125 C-7.96698025 -0.0996138 -4.98692539 -1.66230846 0 0 Z " fill="#07040A" transform="translate(571,84)"/>
<path d="M0 0 C-3.96 7.26 -7.92 14.52 -12 22 C-10.35 22.66 -8.7 23.32 -7 24 C-5.26171875 25.5078125 -5.26171875 25.5078125 -3.6875 27.125 C-0.94184165 29.61665472 0.71376645 30.40131614 4.4375 30.375 C5.613125 30.25125 6.78875 30.1275 8 30 C8.495 32.475 8.495 32.475 9 35 C5.56099435 37.29267044 3.74321586 37.76382168 -0.3125 37.73046875 C-5.25092028 36.38819463 -8.80045746 32.67591624 -12.49609375 29.28515625 C-14.76993522 27.00144467 -14.76993522 27.00144467 -17 26 C-16.7834375 26.65226562 -16.566875 27.30453125 -16.34375 27.9765625 C-14.81497692 32.77521132 -13.59730676 36.89921898 -14 42 C-16.97 42.495 -16.97 42.495 -20 43 C-22.68417255 35.62227434 -24.82232959 28.16804854 -26.75 20.5625 C-26.97260498 19.69850586 -27.19520996 18.83451172 -27.42456055 17.94433594 C-28.43134082 13.8950965 -29.3111247 10.20882586 -29 6 C-27.02 5.67 -25.04 5.34 -23 5 C-19.74031891 14.41002278 -19.74031891 14.41002278 -19 19 C-15.57009458 14.84351025 -13.38883371 10.04438967 -11.04882812 5.22460938 C-8.48302122 0.19681434 -8.48302122 0.19681434 -6.12280273 -0.76489258 C-4 -1 -4 -1 0 0 Z " fill="#06040A" transform="translate(495,97)"/>
<path d="M0 0 C8.25 0 16.5 0 25 0 C25 1.98 25 3.96 25 6 C19.06 6 13.12 6 7 6 C7 9.3 7 12.6 7 16 C12.61 16 18.22 16 24 16 C24 17.98 24 19.96 24 22 C18.39 22 12.78 22 7 22 C7 25.3 7 28.6 7 32 C12.94 32 18.88 32 25 32 C25 33.98 25 35.96 25 38 C16.75 38 8.5 38 0 38 C0 25.46 0 12.92 0 0 Z " fill="#08050B" transform="translate(617,80)"/>
<path d="M0 0 C16.8929385 0.96355353 16.8929385 0.96355353 24 2 C25.125 6.75 25.125 6.75 24 9 C18.06 8.34 12.12 7.68 6 7 C6 9.97 6 12.94 6 16 C11.28 16.66 16.56 17.32 22 18 C21.67 19.98 21.34 21.96 21 24 C9.47835991 23.03644647 9.47835991 23.03644647 4 22 C4 25.3 4 28.6 4 32 C9.61 32.66 15.22 33.32 21 34 C21 35.65 21 37.3 21 39 C20.67 39.33 20.34 39.66 20 40 C18.03879069 39.9340266 16.07992421 39.7951934 14.125 39.625 C12.95839844 39.52574219 11.79179688 39.42648438 10.58984375 39.32421875 C9.40519531 39.21722656 8.22054687 39.11023438 7 39 C5.90816406 38.90332031 4.81632813 38.80664062 3.69140625 38.70703125 C1.12704272 38.47693881 -1.43668317 38.24143465 -4 38 C-3.41511554 25.23338393 -1.7527688 12.65192382 0 0 Z " fill="#09050C" transform="translate(690,84)"/>
<path d="M0 0 C3.43286217 1.14428739 3.80252073 1.77989538 5.69921875 4.7109375 C6.18583984 5.46117187 6.67246094 6.21140625 7.17382812 6.984375 C7.67333984 7.77328125 8.17285156 8.5621875 8.6875 9.375 C9.19861328 10.15617187 9.70972656 10.93734375 10.23632812 11.7421875 C14 17.61130466 14 17.61130466 14 21 C12.35 21.66 10.7 22.32 9 23 C6.36 18.71 3.72 14.42 1 10 C-3.23269496 10.96246855 -3.23269496 10.96246855 -8 13 C-5.03 17.62 -2.06 22.24 1 27 C-0.32 28.32 -1.64 29.64 -3 31 C-7.24404412 27.11973109 -10.10917547 22.95745654 -13 18 C-15.31 19.32 -17.62 20.64 -20 22 C-18.57250019 25.79049707 -16.83763458 29.27122456 -14.875 32.8125 C-14.33617187 33.78832031 -13.79734375 34.76414062 -13.2421875 35.76953125 C-12.83226562 36.50558594 -12.42234375 37.24164063 -12 38 C-15 40 -15 40 -18 40 C-19.33447266 38.50292969 -19.33447266 38.50292969 -20.6640625 36.421875 C-21.14617187 35.67292969 -21.62828125 34.92398438 -22.125 34.15234375 C-22.62 33.35957031 -23.115 32.56679688 -23.625 31.75 C-24.12773438 30.97269531 -24.63046875 30.19539063 -25.1484375 29.39453125 C-29.18829916 23.04152299 -29.18829916 23.04152299 -30 19 C-29.27635254 18.56300781 -29.27635254 18.56300781 -28.53808594 18.1171875 C-26.27369492 16.74757011 -24.01158199 15.37425091 -21.75 14 C-20.93329834 13.50467773 -20.11659668 13.00935547 -19.27514648 12.49902344 C-13.45919045 8.95007181 -7.82997854 5.22732644 -2.28515625 1.265625 C-1.53105469 0.84796875 -0.77695313 0.4303125 0 0 Z " fill="#090407" transform="translate(1109,337)"/>
<path d="M0 0 C3.74419184 2.50868387 6.50260316 5.25390474 9 9 C9.68085106 16.14893617 9.68085106 16.14893617 7 19.5 C6.34 19.995 5.68 20.49 5 21 C3.5 19.9375 3.5 19.9375 2 18 C2 15.66666667 2 13.33333333 2 11 C0.98009206 8.49901018 0.98009206 8.49901018 -1 7 C-3.58462162 6.58282721 -3.58462162 6.58282721 -6 7 C-6.33 7.33 -6.66 7.66 -7 8 C-6.97366836 10.00665114 -6.97366836 10.00665114 -6.6875 12.3125 C-6.60886719 13.09238281 -6.53023437 13.87226563 -6.44921875 14.67578125 C-5.98158637 17.09527053 -5.10241875 18.81266122 -4 21 C-3.42616034 26.16455696 -3.42616034 26.16455696 -4 29 C-6.4375 31.9375 -6.4375 31.9375 -9 34 C-9.33 34.33 -9.66 34.66 -10 35 C-14.07794091 35.39979813 -16.45896089 35.28134034 -20.125 33.375 C-24.08072938 30.10722355 -27.34239596 26.97281212 -29 22 C-29.45528455 15.7398374 -29.45528455 15.7398374 -27.5 12.5625 C-27.005 12.046875 -26.51 11.53125 -26 11 C-24.0625 11.8125 -24.0625 11.8125 -22 13 C-21 16 -21 16 -21.125 19.4375 C-21.26102166 22.92129201 -21.26102166 22.92129201 -19.75 25.375 C-17.79144909 27.19365442 -16.64575558 27.74395914 -14 28 C-13.34 27.67 -12.68 27.34 -12 27 C-11.71943953 23.25919367 -12.0628792 20.53900529 -13.5 17.125 C-15.22947195 12.77637582 -15.61342294 9.67734994 -15 5 C-10.52761354 -0.68113955 -6.95886768 -1.73971692 0 0 Z " fill="#090408" transform="translate(1068,282)"/>
<path d="M0 0 C5.92999851 2.07095348 9.70828206 6.33358955 12.9375 11.58984375 C14.617718 15.40122062 14.80876542 18.93284314 14 23 C12.96875 25.26171875 12.96875 25.26171875 12 27 C9.5625 26.1875 9.5625 26.1875 7 25 C6.00348952 22.01046855 6.0475849 20.66892649 6.3125 17.625 C6.33781465 13.74552949 6.1344723 13.16895238 3.5625 9.9375 C-0.39997628 7.24600667 -4.3860607 7.11886576 -9 8 C-12.99338058 9.55802348 -15.58464782 11.37697172 -18 15 C-18.46516091 20.02373786 -18.01838025 22.93679582 -15 27 C-12.8614515 29.1385485 -11.86724686 29.42655063 -9 30 C-9 31.98 -9 33.96 -9 36 C-11 37 -11 37 -14.25 36 C-18.57244668 34.0467605 -21.36795262 30.88624445 -24 27 C-25.99065952 21.02802144 -26.01763073 14.33207042 -23.5 8.5625 C-16.65373558 1.54507897 -9.71543879 -1.11747266 0 0 Z " fill="#090408" transform="translate(1144,405)"/>
<path d="M0 0 C3.83851372 1.99034045 6.99742551 4.10610516 9 8 C9.40899956 11.74916263 9.30609932 14.25175721 7.875 17.75 C5.03526928 21.15767687 2.24684238 22.62757257 -2.14453125 23.35546875 C-8.33316593 23.74555305 -11.38038247 22.04216534 -16 18 C-17.86669866 14.26660267 -17.69476464 10.05385607 -17 6 C-12.70194929 0.12820149 -6.78315261 -0.83361977 0 0 Z " fill="#EE63C1" transform="translate(1194,608)"/>
<path d="M0 0 C4.918184 2.31443953 7.16508052 5.14635315 9.30859375 9.98046875 C10.6949823 14.02997654 10.52857644 16.80374805 8.8125 20.6875 C5.82132036 24.50383264 3.35994515 25.8021898 -1.4375 26.5 C-5.79958235 25.88777792 -8.24197552 24.31798703 -11 21 C-13.63481508 16.25733286 -14.78655799 12.40758621 -14 7 C-10.33601054 0.96120255 -6.96185277 -0.5801544 0 0 Z " fill="#796BEB" transform="translate(337,169)"/>
<path d="M0 0 C3.75799026 1.39832196 5.39959044 3.28305606 7.3125 6.6875 C9.28750514 11.09888443 9.69750612 14.19495784 9 19 C7.22919168 22.01233445 5.17524611 24.41237695 2 26 C-2.79038736 26.6587959 -5.97920133 26.76016922 -9.9375 23.8125 C-13.45538912 19.01537848 -14.50299506 15.12900392 -14.39453125 9.22265625 C-13.71625604 5.40148205 -11.77407834 3.64197937 -9 1 C-5.93570224 -0.53214888 -3.3834358 -0.22938548 0 0 Z " fill="#846AE8" transform="translate(411,131)"/>
<path d="M0 0 C1.28751357 3.78834888 2.56909069 7.57864846 3.84521484 11.37084961 C4.28011228 12.66046159 4.71662422 13.94953029 5.15478516 15.23803711 C5.78452574 17.0908453 6.40797257 18.94578889 7.03125 20.80078125 C7.40830078 21.91622314 7.78535156 23.03166504 8.17382812 24.1809082 C9 27 9 27 9 30 C6.03 30.495 6.03 30.495 3 31 C2.01 27.37 1.02 23.74 0 20 C-0.83249268 20.27263672 -1.66498535 20.54527344 -2.52270508 20.82617188 C-5.61336896 21.83603761 -8.7052816 22.84195554 -11.7980957 23.84521484 C-13.13617501 24.28015954 -14.47374574 24.71667209 -15.81079102 25.15478516 C-17.73319069 25.78440139 -19.65758784 26.40790843 -21.58203125 27.03125 C-22.73936768 27.40830078 -23.8967041 27.78535156 -25.08911133 28.17382812 C-28 29 -28 29 -31 29 C-31.66 27.02 -32.32 25.04 -33 23 C-27.28454654 20.82734475 -21.5433258 18.76774746 -15.75 16.8125 C-14.96109375 16.53986328 -14.1721875 16.26722656 -13.359375 15.98632812 C-12.59625 15.72916016 -11.833125 15.47199219 -11.046875 15.20703125 C-10.02352051 14.85862183 -10.02352051 14.85862183 -8.97949219 14.50317383 C-7 14 -7 14 -3 14 C-3.2165625 13.31292969 -3.433125 12.62585938 -3.65625 11.91796875 C-3.9346875 11.01691406 -4.213125 10.11585938 -4.5 9.1875 C-4.7784375 8.29417969 -5.056875 7.40085937 -5.34375 6.48046875 C-6 4 -6 4 -6 1 C-3 0 -3 0 0 0 Z " fill="#0B0409" transform="translate(1178,469)"/>
<path d="M0 0 C2.31 0.66 4.62 1.32 7 2 C4.59858057 9.43258997 1.89984005 16.72325568 -0.9375 24 C-1.36740234 25.14339844 -1.79730469 26.28679687 -2.24023438 27.46484375 C-2.66498047 28.54894531 -3.08972656 29.63304687 -3.52734375 30.75 C-3.90624756 31.73484375 -4.28515137 32.7196875 -4.67553711 33.734375 C-6 36 -6 36 -7.96704102 36.890625 C-10 37 -10 37 -13 36 C-12.39517542 31.47748398 -11.21652803 27.59433121 -9.53125 23.359375 C-9.29088013 22.75111877 -9.05051025 22.14286255 -8.80285645 21.51617432 C-8.04075489 19.59187097 -7.2704204 17.67098563 -6.5 15.75 C-5.98254975 14.4455199 -5.46561769 13.14083413 -4.94921875 11.8359375 C-1.22067354 2.44134707 -1.22067354 2.44134707 0 0 Z " fill="#080409" transform="translate(836,119)"/>
<path d="M0 0 C0.495 3.465 0.495 3.465 1 7 C-6.82356009 8.88450717 -14.67643033 10.58738641 -22.5625 12.1875 C-23.43100586 12.36635742 -24.29951172 12.54521484 -25.19433594 12.72949219 C-26.01836914 12.89481445 -26.84240234 13.06013672 -27.69140625 13.23046875 C-28.42560791 13.37895264 -29.15980957 13.52743652 -29.91625977 13.68041992 C-32 14 -32 14 -36 14 C-36.33 11.69 -36.66 9.38 -37 7 C-35.61494263 6.73521851 -35.61494263 6.73521851 -34.2019043 6.46508789 C-30.77434208 5.80883802 -27.34714026 5.15076564 -23.92016602 4.49145508 C-22.43723345 4.20654392 -20.95416121 3.92235871 -19.47094727 3.63891602 C-17.3383322 3.23124169 -15.20623399 2.8209544 -13.07421875 2.41015625 C-11.79119873 2.16402588 -10.50817871 1.91789551 -9.1862793 1.66430664 C-1.20360162 0 -1.20360162 0 0 0 Z " fill="#060205" transform="translate(1198,544)"/>
<path d="M0 0 C4.87722688 -0.34837335 7.78437652 0.54905611 12 3 C13 4 13 4 13.1875 6.875 C13 10 13 10 11 13 C8.72265625 13.36328125 8.72265625 13.36328125 6.0625 13.3125 C5.18722656 13.30863281 4.31195312 13.30476563 3.41015625 13.30078125 C1 13 1 13 -2 11 C-1.85892253 9.54119891 -1.71197585 8.08296449 -1.5625 6.625 C-1.48128906 5.81289062 -1.40007813 5.00078125 -1.31640625 4.1640625 C-1 2 -1 2 0 0 Z " fill="#B466D4" transform="translate(768,104)"/>
<path d="M0 0 C2 2 2 2 2 5.3125 C0.69308641 10.13174388 -0.99299454 11.18657063 -5 14 C-8.7952131 12.50902342 -10.61042731 10.24299151 -13 7 C-9.05228445 1.82713135 -6.73103315 -0.57285389 0 0 Z " fill="#706AEB" transform="translate(281,227)"/>
<path d="M0 0 C0.43468403 3.04278818 0.56615 5.16187599 -1.1953125 7.76953125 C-4.08795866 10.87294811 -4.08795866 10.87294811 -6 12 C-9.23611891 11.69910849 -9.9704914 11.03030613 -12.3125 8.625 C-12.869375 7.75875 -13.42625 6.8925 -14 6 C-11.71521804 -0.85434588 -6.37396799 -1.52975232 0 0 Z " fill="#6F6BED" transform="translate(272,216)"/>
</svg>
