<svg
        xmlns="http://www.w3.org/2000/svg"
        width="32"
        height="32"
        viewBox="0 0 32 32"
        style="background-image: linear-gradient(90deg, #5c33cc 0%, #fda5d5);"
>
    <path
            fill="white"
            d="M 12,8 L 16,8 A 24 8 0 0 0 12,16 A 30 8 0 0 1 10,24 A 8,8 0,0,1 4,24 A 24 8 0 0 0 10,16 A 30 8 0 0 1 12,8 z"
    />
    <path
            fill="white"
            d="M 12,8 L 28,8 A 24 4 0 0 1 28,10 L 22.5,10 L 22.5,24 A 4 24 0 0 1 20,24 L 20,10 L 12,10 A 10 2 0 0 1 12,8 z"
    />
</svg>